<mxfile host="Electron" agent="Mozilla/5.0 (Windows NT 10.0; Win64; x64) AppleWebKit/537.36 (KHTML, like Gecko) draw.io/28.2.8 Chrome/140.0.7339.240 Electron/38.4.0 Safari/537.36" version="28.2.8">
  <diagram name="Page-1" id="cckhRAU9klDnyzQ11kri">
    <mxGraphModel dx="576" dy="841" grid="1" gridSize="10" guides="1" tooltips="1" connect="1" arrows="1" fold="1" page="1" pageScale="1" pageWidth="850" pageHeight="1100" math="0" shadow="0">
      <root>
        <mxCell id="0" />
        <mxCell id="1" parent="0" />
        <mxCell id="jGKvfiks8SonWcWXjs5c-24" value="Author Management" style="whiteSpace=wrap;strokeWidth=2;align=left;verticalAlign=top;" vertex="1" parent="1">
          <mxGeometry x="1190" y="500" width="522" height="458" as="geometry" />
        </mxCell>
        <mxCell id="jGKvfiks8SonWcWXjs5c-25" value="Author Controller" style="whiteSpace=wrap;strokeWidth=2;align=left;verticalAlign=top;" vertex="1" parent="1">
          <mxGeometry x="1369" y="525" width="185" height="54" as="geometry" />
        </mxCell>
        <mxCell id="jGKvfiks8SonWcWXjs5c-26" value="Author Service" style="whiteSpace=wrap;strokeWidth=2;align=left;verticalAlign=top;" vertex="1" parent="1">
          <mxGeometry x="1264" y="702" width="165" height="54" as="geometry" />
        </mxCell>
        <mxCell id="jGKvfiks8SonWcWXjs5c-27" value="Author Entity" style="whiteSpace=wrap;strokeWidth=2;align=left;verticalAlign=top;" vertex="1" parent="1">
          <mxGeometry x="1239" y="879" width="155" height="54" as="geometry" />
        </mxCell>
        <mxCell id="jGKvfiks8SonWcWXjs5c-28" value="Author Repository" style="whiteSpace=wrap;strokeWidth=2;align=left;verticalAlign=top;" vertex="1" parent="1">
          <mxGeometry x="1481" y="879" width="188" height="54" as="geometry" />
        </mxCell>
        <mxCell id="jGKvfiks8SonWcWXjs5c-29" value="Author DTOs/Views" style="whiteSpace=wrap;strokeWidth=2;align=left;verticalAlign=top;" vertex="1" parent="1">
          <mxGeometry x="1479" y="702" width="198" height="54" as="geometry" />
        </mxCell>
        <mxCell id="jGKvfiks8SonWcWXjs5c-30" value="" style="curved=1;startArrow=none;endArrow=block;exitX=0.18;exitY=1;entryX=0.5;entryY=0;rounded=0;align=left;verticalAlign=top;" edge="1" parent="1" source="jGKvfiks8SonWcWXjs5c-25" target="jGKvfiks8SonWcWXjs5c-26">
          <mxGeometry relative="1" as="geometry">
            <Array as="points">
              <mxPoint x="1347" y="604" />
            </Array>
          </mxGeometry>
        </mxCell>
        <mxCell id="jGKvfiks8SonWcWXjs5c-31" value="" style="curved=1;startArrow=none;endArrow=block;exitX=0.5;exitY=1;entryX=0.6;entryY=0;rounded=0;align=left;verticalAlign=top;" edge="1" parent="1" source="jGKvfiks8SonWcWXjs5c-26" target="jGKvfiks8SonWcWXjs5c-27">
          <mxGeometry relative="1" as="geometry">
            <Array as="points">
              <mxPoint x="1347" y="854" />
            </Array>
          </mxGeometry>
        </mxCell>
        <mxCell id="jGKvfiks8SonWcWXjs5c-32" value="" style="curved=1;startArrow=none;endArrow=block;exitX=1;exitY=0.85;entryX=0.5;entryY=0;rounded=0;align=left;verticalAlign=top;" edge="1" parent="1" source="jGKvfiks8SonWcWXjs5c-26" target="jGKvfiks8SonWcWXjs5c-28">
          <mxGeometry relative="1" as="geometry">
            <Array as="points">
              <mxPoint x="1575" y="781" />
            </Array>
          </mxGeometry>
        </mxCell>
        <mxCell id="jGKvfiks8SonWcWXjs5c-33" value="" style="curved=1;startArrow=none;endArrow=block;exitX=0.83;exitY=1;entryX=0.5;entryY=0;rounded=0;align=left;verticalAlign=top;" edge="1" parent="1" source="jGKvfiks8SonWcWXjs5c-25" target="jGKvfiks8SonWcWXjs5c-29">
          <mxGeometry relative="1" as="geometry">
            <Array as="points">
              <mxPoint x="1578" y="604" />
            </Array>
          </mxGeometry>
        </mxCell>
        <mxCell id="jGKvfiks8SonWcWXjs5c-34" value="" style="shape=module;align=left;spacingLeft=20;align=center;verticalAlign=top;whiteSpace=wrap;html=1;movable=1;resizable=1;rotatable=1;deletable=1;editable=1;locked=0;connectable=1;" vertex="1" parent="1">
          <mxGeometry x="1666" y="510" width="34.5" height="50" as="geometry" />
        </mxCell>
      </root>
    </mxGraphModel>
  </diagram>
</mxfile>
